# xmcd CD database file
#
# Track frame offsets:
#	300
#	17644
#	37952
#	53864
#	68123
#	83846
#	103744
#	115528
#	131550
#	146075
#
# Disc length: 2278 seconds
#
# Revision: 1
# Processed by: cddbd v1.4PL0 Copyright (c) Steve Scherf et al.
# Submitted via: CDex 1.40Beta9
#
DISCID=8308e20a
DTITLE=John Pimm - at the window
DYEAR=2000
DGENRE=Blues
TTITLE0=Feel Like Makin' Love
TTITLE1=Shadows on a Screen
TTITLE2=Into the Mystic
TTITLE3=Welcome to My World
TTITLE4=Damn Your Eyes
TTITLE5=Just Who I Am
TTITLE6=Mr. Pitiful
TTITLE7=I Wish You Love
TTITLE8=You Rascal You
TTITLE9=Carrickfergus
EXTD=YEAR: 2000 ID3G: 0
EXTT0=
EXTT1=
EXTT2=
EXTT3=
EXTT4=
EXTT5=
EXTT6=
EXTT7=
EXTT8=
EXTT9=
PLAYORDER=
